<?xml version="1.0" encoding="UTF-8"?>
<svg xmlns="http://www.w3.org/2000/svg" xmlns:xlink="http://www.w3.org/1999/xlink" width="594px" height="212px" viewBox="0 0 594 212" version="1.1">
<g id="surface1">
<path style="fill-rule:evenodd;fill:rgb(96.078432%,50.980395%,12.156863%);fill-opacity:1;stroke-width:0.216;stroke-linecap:butt;stroke-linejoin:miter;stroke:rgb(96.078432%,50.980395%,12.156863%);stroke-opacity:1;stroke-miterlimit:22.9256;" d="M 1167.492605 512.380259 L 1142.10283 512.380259 L 1142.10283 414.067658 C 1142.10283 414.055935 1142.10283 414.044211 1142.10283 414.020765 L 1142.055877 411.664357 C 1142.044139 411.629187 1142.055877 411.60574 1142.055877 411.582293 L 1141.903281 409.436907 C 1141.903281 409.41346 1141.903281 409.390014 1141.903281 409.354843 L 1141.668516 407.256351 C 1141.668516 407.232904 1141.656778 407.209457 1141.656778 407.174287 L 1141.339846 405.110965 C 1141.339846 405.075795 1141.328108 405.052348 1141.316369 405.028901 L 1140.91727 403.00075 C 1140.905532 402.965579 1140.905532 402.942133 1140.893793 402.918686 L 1140.400788 400.925704 C 1140.38905 400.890534 1140.38905 400.867087 1140.377312 400.84364 L 1139.802139 398.885829 C 1139.802139 398.862382 1139.7904 398.838935 1139.778662 398.815489 L 1139.13306 396.904571 C 1139.121322 396.869401 1139.109584 396.845954 1139.097845 396.822507 L 1138.370076 394.958483 C 1138.358337 394.935037 1138.346599 394.91159 1138.334861 394.888143 L 1137.524924 393.059289 C 1137.513185 393.035843 1137.501447 393.012396 1137.489709 392.988949 L 1136.609342 391.206989 C 1136.597604 391.183542 1136.585866 391.160095 1136.574128 391.136648 L 1135.623332 389.425029 C 1135.611593 389.389859 1135.588117 389.378135 1135.576379 389.342965 L 1134.555153 387.689963 C 1134.543415 387.654793 1134.531677 387.643069 1134.5082 387.619622 L 1133.416546 386.013514 C 1133.404807 385.990067 1133.393069 385.96662 1133.369593 385.943173 L 1132.219247 384.395682 C 1132.195771 384.372235 1132.184032 384.360512 1132.160556 384.337065 L 1130.951519 382.859914 C 1130.928043 382.836467 1130.916304 382.81302 1130.892828 382.789573 L 1129.613362 381.382763 C 1129.601623 381.359316 1129.578147 381.335869 1129.554671 381.312422 L 1128.228251 379.975953 C 1128.204775 379.952506 1128.181299 379.940782 1128.157822 379.917335 L 1126.772712 378.651206 C 1126.749235 378.639483 1126.737497 378.616036 1126.702283 378.592589 L 1125.270219 377.408524 C 1125.246743 377.385077 1125.223266 377.373353 1125.19979 377.349906 L 1123.709036 376.247905 C 1123.685559 376.224458 1123.662083 376.212735 1123.638606 376.201011 L 1122.112638 375.16935 C 1122.077423 375.157627 1122.053946 375.13418 1122.03047 375.122457 L 1120.44581 374.184583 C 1120.422334 374.161136 1120.398857 374.149413 1120.363642 374.137689 L 1118.755506 373.293603 C 1118.720291 373.270156 1118.696815 373.258433 1118.6616 373.246709 L 1117.018249 372.484687 C 1116.983034 372.472964 1116.959558 372.46124 1116.924343 372.449517 L 1115.234039 371.781282 C 1115.198825 371.769558 1115.175348 371.757835 1115.140133 371.746112 L 1113.414615 371.171664 C 1113.3794 371.171664 1113.355924 371.159941 1113.320709 371.148217 L 1111.559976 370.67928 C 1111.524761 370.667557 1111.489546 370.655834 1111.454332 370.64411 L 1109.670122 370.280684 C 1109.634907 370.268961 1109.599692 370.268961 1109.564478 370.257237 L 1107.756792 369.987599 C 1107.709839 369.987599 1107.686362 369.975875 1107.639409 369.975875 L 1105.796508 369.811747 C 1105.761294 369.811747 1105.726079 369.811747 1105.690864 369.811747 L 1103.648414 369.741407 C 1103.624937 369.741407 1103.613199 369.741407 1103.589723 369.741407 L 779.274376 369.741407 L 779.274376 358.076604 L 1119.577182 358.076604 C 1124.683308 358.076604 1129.695529 359.014477 1134.461248 360.843331 C 1144.333093 364.641719 1152.455942 371.933686 1158.102027 380.808315 C 1164.3585 390.655988 1167.492605 402.227004 1167.492605 413.86836 Z M 623.343829 516.401392 L 648.721866 516.401392 L 648.721866 574.490939 C 648.721866 574.502662 648.721866 574.514386 648.721866 574.526109 L 648.780557 576.89424 C 648.780557 576.92941 648.780557 576.952857 648.780557 576.976304 L 648.921416 579.109966 C 648.921416 579.145137 648.921416 579.168584 648.933154 579.19203 L 649.156181 581.302246 C 649.167919 581.325693 649.167919 581.34914 649.167919 581.38431 L 649.496589 583.447632 C 649.496589 583.471079 649.496589 583.494526 649.508327 583.529696 L 649.919165 585.557847 C 649.919165 585.581294 649.930903 585.604741 649.930903 585.639911 L 650.423909 587.632893 C 650.435647 587.65634 650.435647 587.679787 650.447385 587.714957 L 651.022558 589.661045 C 651.034296 589.696215 651.034296 589.719662 651.046034 589.743108 L 651.703375 591.654026 C 651.703375 591.677473 651.715113 591.70092 651.726851 591.73609 L 652.454621 593.600114 C 652.466359 593.623561 652.478097 593.647007 652.489836 593.670454 L 653.299773 595.499308 C 653.311511 595.522755 653.323249 595.546201 653.334988 595.569648 L 654.215354 597.339885 C 654.227093 597.363332 654.238831 597.386778 654.250569 597.410225 L 655.201365 599.133568 C 655.224841 599.157015 655.23658 599.180462 655.248318 599.203908 L 656.269543 600.868634 C 656.29302 600.892081 656.304758 600.915528 656.316496 600.938975 L 657.408151 602.545083 C 657.419889 602.56853 657.443366 602.591977 657.455104 602.615424 L 658.617188 604.162915 C 658.628926 604.186362 658.640664 604.198085 658.664141 604.221532 L 659.873178 605.698683 C 659.896654 605.72213 659.92013 605.745577 659.931869 605.769024 L 661.211335 607.175834 C 661.234811 607.199281 661.24655 607.211004 661.270026 607.234451 L 662.596445 608.570921 C 662.619922 608.594368 662.643398 608.617815 662.666875 608.641262 L 664.051985 609.895668 C 664.075461 609.919114 664.098938 609.942561 664.122414 609.954285 L 665.554477 611.13835 C 665.577954 611.161797 665.60143 611.185244 665.624907 611.196967 L 667.115661 612.310692 C 667.139137 612.322416 667.162614 612.345862 667.18609 612.357586 L 668.723797 613.377523 C 668.747274 613.40097 668.77075 613.412694 668.805965 613.436141 L 670.378887 614.374014 C 670.402363 614.385738 670.42584 614.397461 670.461054 614.420908 L 672.069191 615.264994 C 672.104405 615.288441 672.127882 615.300164 672.163096 615.311888 L 673.818186 616.07391 C 673.841662 616.085633 673.876877 616.097357 673.900353 616.10908 L 675.590657 616.777315 C 675.625872 616.789039 675.661087 616.800762 675.696301 616.812485 L 677.410082 617.37521 C 677.445297 617.386933 677.480511 617.398656 677.515726 617.41038 L 679.264721 617.879317 C 679.299936 617.89104 679.33515 617.902764 679.370365 617.902764 L 681.154575 618.277913 C 681.189789 618.289636 681.225004 618.289636 681.260219 618.30136 L 683.079643 618.570999 C 683.114858 618.570999 683.150073 618.570999 683.185287 618.582722 L 685.028188 618.74685 C 685.063403 618.74685 685.098618 618.74685 685.133832 618.74685 L 687.176283 618.805467 C 687.199759 618.805467 687.211498 618.805467 687.234974 618.805467 L 1011.562059 618.805467 L 1011.562059 630.481993 L 671.247515 630.481993 C 666.153127 630.481993 661.140906 629.54412 656.386926 627.715266 C 646.503342 623.928601 638.380492 616.624911 632.734407 607.762005 C 626.466197 597.914332 623.343829 586.331593 623.343829 574.690237 Z M 1007.512372 393.106183 C 999.189973 392.672417 987.017436 393.387545 983.672043 402.086323 C 981.265707 408.358353 984.599362 418.932878 986.219237 425.275248 L 1026.387434 582.064268 C 1026.493078 582.486311 1026.716104 582.814567 1027.056513 583.084206 C 1034.86243 589.016256 1042.914851 594.678668 1051.272465 599.801803 C 1059.019692 604.549788 1067.095589 608.899177 1075.488418 612.369309 C 1089.703405 618.242743 1105.902152 622.005961 1121.126627 617.984828 C 1125.868869 616.718698 1130.341131 614.749164 1134.472986 612.099671 C 1148.464947 603.142978 1149.56834 584.256548 1149.145764 569.191953 L 1155.367022 564.713607 L 1166.729621 620.997746 C 1146.234685 633.272167 1121.795706 637.25813 1098.495334 631.677782 C 1081.81532 627.680096 1065.56962 619.567489 1050.990748 610.681137 C 1034.20509 600.446591 1018.335013 588.371468 1003.227921 575.803962 C 990.6915 565.370118 978.565916 554.455614 966.639882 543.330088 C 955.852455 533.25967 945.252841 523.013401 934.594535 512.825749 L 886.855184 467.151304 C 886.244797 466.576857 885.36443 466.471346 884.63666 466.893389 C 883.90889 467.315432 883.568482 468.136072 883.768032 468.944988 L 916.764175 600.704506 L 838.787163 600.704506 L 839.960986 595.241392 C 843.717217 595.440691 847.532139 595.393797 851.229679 594.737285 C 860.397231 593.119453 866.254604 587.879085 864.282582 577.890731 L 860.420707 558.277449 C 860.362016 557.960917 860.232896 557.714725 860.033346 557.468533 L 800.039291 483.892348 C 791.740368 473.71642 783.535351 463.470151 775.189474 453.341116 C 767.301389 443.763081 759.272445 434.267111 750.856139 425.14629 C 743.179342 416.834385 735.126921 408.745225 726.464113 401.464982 C 718.752101 394.98193 710.406225 389.014709 701.39127 384.477746 C 693.749687 380.632464 685.309906 377.3968 676.823171 376.083777 C 669.486782 374.958329 661.739555 375.251414 654.978339 378.592589 C 641.338524 385.321832 637.523602 401.382918 636.866262 415.310341 C 636.67845 419.21424 636.983644 423.165032 637.723152 427.010314 C 640.763351 442.848655 651.609469 457.643611 669.040729 455.005841 L 670.566698 460.316551 L 619.505431 460.609636 C 618.343347 456.752631 617.392551 452.837008 616.653043 448.874492 C 614.011943 434.829835 613.847608 419.554219 616.981713 405.568179 C 619.57586 393.961993 624.85806 381.769636 634.307329 374.102519 C 642.1602 367.736702 651.081249 363.680399 661.187858 362.648738 C 676.271474 361.089523 691.343352 366.494019 704.349302 373.680476 C 711.943932 377.87746 719.162939 382.84819 726.006323 388.182347 C 733.248806 393.821312 740.139142 399.929214 746.747762 406.295031 C 759.906309 418.968048 772.11406 432.78996 783.570565 447.010469 L 851.570088 531.536328 C 852.121784 532.228009 853.049104 532.427308 853.847303 532.040435 C 854.633764 531.641838 855.032863 530.774305 854.809837 529.918496 L 819.149117 390.726329 C 821.391118 390.726329 823.633118 390.726329 825.886857 390.726329 L 866.571536 431.981044 C 866.712395 432.133449 866.87673 432.250683 867.052803 432.34447 C 873.860972 439.284735 880.657403 446.236723 887.465572 453.176988 C 887.489048 453.188711 887.500786 453.200435 887.512525 453.223881 L 940.616243 504.115248 C 949.760318 512.884366 958.693105 521.876229 967.778489 530.715688 C 968.377139 531.301859 969.269244 531.419093 969.997013 530.99705 C 970.736521 530.563284 971.07693 529.742644 970.865642 528.922005 L 934.148482 387.643069 L 1008.662718 387.643069 Z M 1007.512372 393.106183 " transform="matrix(0.33278,0,0,-0.333201,0.469659,211.666789)"/>
<path style="fill-rule:evenodd;fill:rgb(96.078432%,50.980395%,12.156863%);fill-opacity:1;stroke-width:0.216;stroke-linecap:butt;stroke-linejoin:miter;stroke:rgb(96.078432%,50.980395%,12.156863%);stroke-opacity:1;stroke-miterlimit:22.9256;" d="M 7.920567 210.056702 C 17.463742 208.942977 26.337838 208.380252 34.519379 208.380252 L 45.271591 209.048487 L 56.188138 210.056702 C 62.855448 189.599333 79.688059 152.494709 106.603803 98.684211 L 125.537556 60.958245 L 128.425158 54.53381 C 129.786792 51.34504 130.843232 49.668591 131.676646 49.445846 C 133.413903 49.445846 154.918326 92.928011 196.201654 179.927512 L 210.052757 209.048487 L 214.783261 208.720232 L 224.960299 208.380252 C 228.622625 208.380252 231.568919 208.43887 233.763966 208.54438 C 242.790659 208.98987 247.67376 209.212615 248.354577 209.212615 L 250.819603 209.388467 C 251.394776 209.388467 251.922996 209.165722 252.333834 208.720232 L 252.920745 207.090676 C 252.920745 205.976951 251.50042 205.085971 248.718461 204.417736 C 245.88955 203.690884 242.051151 203.350905 237.226742 203.350905 C 232.672311 203.350905 229.420824 200.279369 227.624876 194.241808 C 225.852404 188.204246 224.960299 174.007185 224.960299 151.767857 C 224.960299 133.772407 225.065943 119.188472 225.324184 108.121564 C 225.582425 97.054655 225.852404 85.718108 226.157598 74.088475 C 226.47453 62.470566 226.638865 54.9793 226.638865 51.567785 C 226.638865 43.302774 227.260991 36.374233 228.470028 30.782161 C 229.726018 25.248707 231.298939 21.004829 233.353128 18.097421 C 235.348626 15.190013 239.069643 13.454946 244.63356 12.786711 C 250.185739 12.786711 252.920745 11.71988 252.920745 9.656558 L 252.498169 7.698747 C 252.181237 7.698747 251.606064 7.698747 250.760912 7.698747 L 248.460221 7.698747 C 245.314377 7.698747 241.006449 7.815981 235.65382 8.08562 C 230.254238 8.366982 226.897106 8.484216 225.582425 8.484216 C 217.870413 8.484216 210.733574 8.308365 204.124955 8.038726 C 197.516335 7.698747 190.438187 7.089129 182.831819 6.186426 L 178.688227 5.85817 C 177.796122 5.85817 177.162258 6.022298 176.845326 6.350554 L 176.375797 8.484216 C 176.375797 9.820686 178.629536 10.8289 183.09006 11.555752 C 187.550585 12.223987 191.482889 13.783202 195.004356 16.186503 C 199.194901 19.035294 202.188148 23.40813 203.972358 29.328457 C 205.756567 35.248784 206.648672 45.366096 206.648672 59.668668 L 206.648672 99.856553 C 206.648672 103.936303 206.543028 110.196609 206.378693 118.625748 C 206.179143 127.125228 206.073499 133.608279 206.073499 138.074902 C 206.073499 142.553249 205.956117 150.032791 205.756567 160.490081 C 205.545279 170.935649 205.439635 176.586337 205.439635 177.477317 L 204.230599 177.477317 C 177.162258 126.398376 153.23976 74.979455 132.416154 23.232279 C 128.108226 12.728094 125.6432 7.417385 125.068027 7.19464 C 124.434163 7.19464 123.178173 10.219282 121.241366 16.186503 C 120.29057 19.035294 119.351512 21.895809 118.459407 24.627366 C 117.52035 27.429263 116.522601 30.278054 115.360517 33.126845 C 113.318066 38.378938 105.653007 55.026194 92.330124 83.138956 C 87.822647 92.646649 83.31517 102.142619 78.795954 111.697207 C 75.016246 119.692579 69.992287 130.032636 63.747553 142.822887 C 58.183635 154.112541 52.678409 165.402194 47.114492 176.809082 L 45.752858 176.809082 C 45.752858 169.481945 45.330282 160.712826 44.543821 150.490004 C 42.70092 127.453484 41.761862 113.549507 41.761862 108.684288 C 41.761862 100.46617 41.656218 92.810777 41.44493 85.659491 C 40.822805 64.147015 40.552825 52.740127 40.552825 51.462274 L 40.552825 45.530224 C 40.552825 32.564121 41.397977 24.29911 43.123496 20.606233 C 44.907706 16.913355 48.264838 14.287309 53.300535 12.786711 L 61.58772 10.887517 C 66.21258 9.879303 68.513271 8.753855 68.513271 7.476002 L 68.043742 6.350554 C 67.72681 6.022298 67.257281 5.85817 66.682108 5.85817 L 61.904652 5.85817 L 58.970096 6.022298 C 54.979101 6.022298 51.727613 6.080915 49.309539 6.186426 C 39.343788 6.631916 33.791609 6.854661 32.523881 6.854661 C 22.922015 6.854661 13.543176 6.186426 4.410839 4.908573 L 1.476283 4.908573 L 0.57244 5.41268 L 0.102911 7.19464 C 0.102911 8.08562 3.201802 9.316579 9.340892 10.887517 C 15.479982 12.446732 20.198748 15.190013 23.450235 18.988401 C 25.809618 21.614447 27.91076 27.194795 29.69497 35.647381 C 31.479179 44.135137 32.371284 55.084811 32.371284 68.555021 L 32.523881 71.016939 L 34.836311 118.578854 C 34.836311 123.77233 34.988908 131.029127 35.30584 140.196841 C 35.622772 149.364556 35.787107 156.011735 35.787107 160.044591 C 35.787107 174.007185 34.683714 184.018986 32.523881 189.986206 C 30.375787 195.918257 26.65477 200.056624 21.302141 202.342691 C 17.416789 203.960523 13.1206 205.191482 8.343143 205.976951 C 3.565687 206.703803 1.206304 207.6534 1.206304 208.767125 C 1.206304 209.271232 1.311948 209.728446 1.62888 210.056702 Z M 361.475826 17.487803 L 361.123679 19.797317 C 360.971082 20.969659 360.689365 22.153724 360.219836 23.37296 L 348.411184 57.663964 C 348.17642 58.461156 347.742106 59.141115 347.061289 59.598328 C 346.439163 60.102435 345.288817 60.348627 343.668942 60.348627 L 298.406357 60.348627 C 296.633885 60.348627 295.41311 60.102435 294.732293 59.598328 C 294.344932 59.223178 293.82845 58.297028 293.241539 56.901941 L 283.052762 27.077561 L 281.867202 22.786789 L 281.55027 19.211146 C 281.55027 14.920374 284.437872 11.884008 290.201339 10.078601 C 296.000021 8.273195 298.887624 7.053959 298.887624 6.374001 C 298.570692 5.869894 298.335928 5.576808 298.171592 5.41268 L 296.434336 4.908573 L 292.525507 4.908573 L 285.693862 5.658872 L 274.718624 6.374001 C 271.631472 6.374001 268.438675 6.209873 265.116758 5.869894 L 259.071574 5.41268 L 258.285113 5.752659 L 257.932966 6.631916 C 257.932966 7.300151 258.637259 7.933216 260.02237 8.519387 C 261.40748 9.152451 262.393491 9.621388 263.027355 9.914474 C 263.661219 10.160665 264.283344 10.629602 264.999376 11.168879 C 269.542068 14.334203 278.345735 33.302697 291.375162 68.132978 L 294.380147 76.304202 C 294.978796 77.94548 297.150367 83.912701 300.859645 94.264481 C 304.251992 103.643217 306.470516 109.833183 307.456526 112.775762 C 309.228998 117.863726 311.447522 124.21782 314.053407 131.744255 C 320.521168 150.759643 324.160017 160.267336 324.911263 160.361124 C 326.096824 160.361124 327.165002 158.426759 328.151012 154.593201 C 328.855306 151.275473 329.571337 148.614257 330.357798 146.550935 C 332.811087 139.235521 335.416972 131.791149 338.105025 124.182649 C 340.828293 116.562426 343.75111 108.567054 346.908692 100.196532 C 348.998095 94.60446 351.298787 88.461388 353.85772 81.720422 C 357.766548 71.169344 360.571983 63.8891 362.191857 59.762456 C 362.708339 58.379092 366.030256 49.879613 372.14587 34.357804 C 375.385619 25.987283 378.026719 20.383488 380.045694 17.522973 C 382.099883 14.709352 384.588386 12.599137 387.511203 11.168879 L 390.868335 10.078601 C 392.253445 9.83241 392.957738 9.328303 392.957738 8.613174 C 392.957738 8.097343 392.840356 7.722194 392.558639 7.464279 C 392.28866 7.264981 391.807393 7.136023 391.103099 7.136023 L 389.013696 7.264981 C 386.795172 7.264981 384.975747 7.264981 383.602375 7.347045 C 378.026719 7.6753 374.98652 7.851152 374.434823 7.851152 C 370.525995 7.851152 366.382403 7.558066 362.074475 7.007065 L 354.292034 6.127809 L 352.672159 6.127809 C 351.920913 6.127809 351.369216 6.209873 351.052284 6.374001 L 350.500588 7.347045 C 350.500588 8.097343 352.320012 9.070387 355.994076 10.336517 C 359.66814 11.555752 361.475826 13.94733 361.475826 17.487803 Z M 344.384974 67.499913 C 344.384974 68.097808 344.384974 68.555021 344.384974 68.848106 L 343.903707 70.243193 L 322.270163 125.941162 L 321.835849 126.914206 C 321.354582 127.92242 320.920267 128.426527 320.521168 128.508591 C 319.969471 128.33274 319.652539 128.215506 319.499943 128.039655 L 318.666529 126.785249 L 298.206807 70.243193 L 297.619896 68.601915 L 297.619896 67.757828 C 297.619896 66.913742 297.619896 66.456529 297.619896 66.280677 L 299.7093 65.905528 L 343.434178 65.905528 C 343.833278 65.905528 344.138471 66.034486 344.384974 66.280677 Z M 406.973176 159.094994 L 412.067564 158.590887 L 421.951148 158.08678 C 423.876216 158.08678 426.29429 158.215738 429.252322 158.46193 C 432.175139 158.719845 435.966585 159.141888 440.591445 159.728059 C 449.782473 160.783167 456.297186 161.322444 460.100371 161.322444 C 474.714457 161.322444 486.440942 157.453716 495.291561 149.669365 C 504.130443 141.885014 508.555753 131.662191 508.555753 118.918834 C 508.555753 110.548312 505.985082 103.10394 500.808526 96.620889 C 495.643708 90.102667 488.330795 85.342958 478.928479 82.318316 C 490.185435 62.083693 500.174662 46.221906 508.83747 34.732954 C 517.512016 23.244002 525.658343 14.955544 533.20602 9.949644 C 536.83313 7.593236 540.425026 5.834723 544.016922 4.650658 C 547.608819 3.513486 549.393028 2.587336 549.393028 1.837037 C 549.393028 1.33293 549.275646 0.992951 548.993929 0.735036 C 548.72395 0.488844 548.207468 0.277822 547.421007 0.113694 L 541.774922 0.113694 C 529.168071 0.113694 516.338194 6.585022 503.261814 19.504231 C 490.15022 32.45861 476.205212 52.482212 461.403313 79.575036 L 458.046182 79.575036 L 448.045216 79.961909 C 446.43708 79.961909 444.85242 80.043973 443.314712 80.254994 C 441.777005 80.466016 439.640649 80.841165 436.952596 81.298379 L 436.835214 73.431964 L 436.835214 53.326298 C 436.835214 36.421126 437.18736 25.565239 437.868177 20.723467 C 438.572471 15.928588 439.875413 12.98601 441.81222 11.930902 C 443.983791 10.922688 446.507509 10.031708 449.430326 9.199345 C 452.200547 8.730408 453.573919 7.769088 453.573919 6.374001 C 453.573919 5.78783 453.538704 5.41268 453.374369 5.154765 L 452.670076 4.650658 L 444.300723 5.869894 C 441.894388 6.209873 439.241549 6.502958 436.400899 6.74915 C 433.513297 7.007065 430.836982 7.136023 428.383694 7.136023 C 422.538059 7.136023 416.492874 6.502958 410.212925 5.283723 L 407.923972 4.908573 L 406.973176 5.283723 L 406.973176 6.631916 C 406.973176 7.511172 407.923972 8.355259 409.860779 9.117281 C 411.562821 9.49243 412.865764 9.949644 413.804821 10.453751 C 416.809806 11.590923 418.89921 13.994224 420.049556 17.605037 C 420.68342 19.504231 421.117734 22.317852 421.434666 26.104517 C 421.751598 29.902905 421.904195 35.026039 421.904195 41.509091 L 421.904195 90.688838 C 421.904195 116.011425 421.552048 132.213192 420.800802 139.364478 C 420.08477 146.515765 418.781828 150.85343 416.927189 152.318858 C 415.553816 153.209837 413.21791 153.878072 409.942946 154.335286 C 406.667982 154.804223 405.001155 155.636585 405.001155 156.867545 C 405.001155 157.535779 405.16549 158.039887 405.482422 158.426759 C 405.799354 158.801909 406.268883 159.01293 406.973176 159.094994 Z M 436.835214 87.488344 C 438.220324 87.066301 439.758031 86.691152 441.41312 86.351173 C 443.06821 86.011193 445.005016 85.729831 447.258755 85.425022 C 449.465541 85.131937 451.050201 84.967809 452.000997 84.920915 C 452.90484 84.885745 453.937804 84.885745 455.005982 84.885745 C 466.650299 84.885745 475.770897 87.734536 482.367778 93.455565 C 488.964659 99.188318 492.239623 107.007839 492.239623 116.937576 C 492.239623 128.930634 488.964659 138.567286 482.414731 145.800636 C 475.853065 153.033986 467.084613 156.656523 456.027207 156.656523 C 450.733269 156.656523 446.624891 156.023458 443.749027 154.804223 C 440.826209 153.584987 439.088952 151.732687 438.455088 149.247321 C 438.372921 148.907342 438.220324 147.570872 438.020774 145.167571 C 437.551245 140.50165 437.304743 135.824005 437.304743 131.122914 Z M 637.183194 158.848803 L 661.082214 158.344695 L 668.11341 158.344695 C 669.134635 158.344695 670.202813 158.379866 671.388374 158.426759 C 672.609149 158.46193 673.829924 158.626058 675.144605 158.883973 C 677.938302 159.259122 679.476009 159.892187 679.875109 160.818337 L 681.612365 158.848803 C 679.605129 153.667051 677.985255 148.11015 676.752741 142.178099 C 675.531966 136.292942 674.663338 133.256576 674.229024 133.092449 L 672.13962 133.221406 C 671.904856 133.385534 671.74052 133.467598 671.658353 133.561385 C 671.587924 133.643449 671.505756 133.725513 671.423588 133.807577 L 671.904856 136.797049 L 672.374384 140.372692 C 672.374384 144.370379 669.615902 147.312957 664.157629 149.118364 C 658.664141 150.935494 649.778306 151.81475 637.547079 151.81475 L 628.966438 151.439601 L 619.024164 151.439601 L 618.108582 121.017326 L 618.108582 94.182417 C 618.108582 78.906801 618.143797 67.253721 618.225964 59.176285 C 618.308132 51.145742 618.425514 42.095262 618.589849 32.001397 C 618.589849 27.710625 618.777661 24.346004 619.223713 21.813745 C 619.646289 19.340103 620.280153 17.323675 621.113567 15.79963 C 621.982196 14.287309 623.80162 13.068074 626.560102 12.141923 C 629.647255 11.344731 633.356533 10.922688 637.781843 10.922688 C 638.838283 10.922688 639.5191 10.79373 639.789079 10.547538 C 640.070796 10.289623 640.223393 9.750346 640.305561 8.824195 C 640.305561 7.933216 640.270346 7.347045 640.141226 7.053959 C 640.023843 6.74915 639.753864 6.549852 639.389979 6.374001 L 630.46893 7.136023 C 628.614291 7.136023 625.926238 7.218087 622.369557 7.464279 C 618.824614 7.722194 616.20699 7.851152 614.516686 7.851152 C 607.415062 7.851152 600.102149 7.347045 592.519257 6.374001 L 581.414899 4.908573 C 580.94537 4.908573 580.593223 5.025807 580.311506 5.330616 C 580.041527 5.623702 579.924145 6.045745 579.924145 6.631916 C 579.924145 8.273195 582.72958 9.410366 588.293497 10.078601 C 593.904368 10.711666 597.578431 12.012966 599.350903 13.865266 C 599.902599 14.451437 600.372128 15.76446 600.806442 17.780888 C 601.252495 19.750423 601.440306 22.317852 601.440306 25.436282 C 601.440306 27.581668 601.604642 34.568826 601.956788 46.33914 C 602.308935 58.168071 602.47327 67.757828 602.47327 75.16703 L 602.47327 95.565781 C 602.47327 104.827283 602.391102 112.271654 602.27372 117.828556 C 602.156338 123.420627 602.038956 128.672719 601.921574 133.596556 C 601.921574 136.539134 601.839406 139.446542 601.675071 142.389121 C 601.522474 145.296529 601.322924 148.063256 601.123374 150.677579 L 589.079958 151.439601 L 576.91916 151.81475 C 569.054551 151.81475 562.387241 151.181686 556.858538 149.92728 C 551.329835 148.614257 547.573604 146.80885 545.566368 144.417272 C 544.815122 143.362165 543.782158 141.334013 542.561383 138.391434 C 541.645802 135.659878 540.906294 134.311684 540.354597 134.311684 L 538.535173 134.686834 C 538.053905 134.944749 537.819141 135.284728 537.819141 135.659878 L 540.624576 142.940121 C 542.31488 146.972978 543.89954 151.521665 545.366818 156.527565 L 546.071111 159.728059 C 546.505426 162.201701 547.104075 163.43266 547.808368 163.43266 C 548.242683 163.43266 548.841332 163.045787 549.545625 162.248594 C 550.214704 161.451402 550.895521 161.076252 551.529385 161.076252 C 552.75016 160.150102 554.604799 159.470144 557.011135 159.01293 C 559.464423 158.543994 562.622005 158.344695 566.495618 158.344695 L 578.574249 158.344695 L 593.857415 158.719845 L 598.881374 158.883973 L 604.093145 159.094994 C 606.933795 159.094994 612.028183 159.059824 619.37631 158.966037 C 626.724438 158.883973 632.675716 158.848803 637.183194 158.848803 Z M 720.27807 157.828865 C 724.50383 157.828865 727.54403 157.910929 729.281287 158.039887 C 731.053758 158.168844 733.988314 158.426759 737.967571 158.848803 L 750.374872 159.810123 C 751.677815 159.810123 752.499491 159.681165 752.89859 159.434974 C 753.215522 158.966037 753.379857 158.590887 753.379857 158.344695 C 753.379857 157.406822 751.360883 156.527565 747.299458 155.683479 C 743.26151 154.804223 740.22131 153.4912 738.284503 151.732687 C 736.312482 149.96245 734.856942 143.444229 733.941361 132.213192 C 733.941361 128.086548 733.823979 121.357305 733.589214 111.978569 C 733.35445 102.635003 733.1549 94.299651 733.002303 86.984237 C 732.837968 79.668823 732.767539 71.884472 732.767539 63.678078 L 732.767539 40.160897 C 732.767539 28.542988 733.35445 20.852424 734.493057 16.983696 C 735.643403 13.525287 737.967571 11.344731 741.453823 10.453751 L 748.402851 9.574494 C 751.396098 9.574494 752.89859 8.906259 752.89859 7.593236 C 752.89859 6.842937 752.628611 6.33883 752.076915 6.045745 C 751.560433 5.752659 750.609637 5.623702 749.306694 5.623702 L 747.686819 5.623702 C 745.667845 5.752659 743.578442 5.869894 741.324703 5.951958 C 739.082702 6.080915 737.228063 6.127809 735.678618 6.127809 L 719.256845 6.878108 C 718.223881 6.878108 716.45141 6.74915 713.915954 6.502958 C 711.357021 6.245043 709.302832 6.127809 707.682957 6.127809 L 696.10907 6.127809 C 695.240442 6.127809 694.688745 6.245043 694.371813 6.502958 C 694.054881 6.74915 693.902284 7.089129 693.902284 7.593236 C 693.902284 8.273195 694.101834 8.777302 694.489195 9.152451 C 694.841342 9.539324 695.721709 9.785516 697.024651 9.949644 C 702.036872 9.949644 705.992653 10.711666 708.821565 12.223987 C 711.673953 13.736308 713.728142 16.268567 714.948917 19.797317 C 715.500614 21.438596 715.970142 23.630875 716.416195 26.362432 C 716.838771 29.058819 717.038321 32.341376 717.038321 36.210105 C 717.038321 39.152683 717.120488 46.175012 717.320038 57.277091 C 717.50785 68.343999 717.601755 76.937266 717.601755 82.904487 C 717.601755 111.181376 717.038321 129.387848 715.970142 137.641136 C 714.913702 145.84753 713.047325 150.595515 710.44144 151.861644 C 707.80034 153.11605 704.56059 153.960136 700.73393 154.382179 C 696.942484 154.382179 695.040892 155.132478 695.040892 156.609629 C 695.040892 157.371652 695.240442 157.828865 695.557374 158.039887 C 695.90952 158.250908 696.625552 158.426759 697.728945 158.590887 L 698.632788 158.590887 L 709.18545 158.215738 Z M 917.351086 87.617302 L 917.351086 57.663964 L 917.703233 28.425754 L 918.067118 10.922688 L 918.172762 10.453751 L 918.372311 7.593236 C 918.372311 6.960172 918.254929 6.456065 918.067118 6.209873 C 917.820615 5.916787 917.268918 5.705766 916.435505 5.623702 C 915.578614 6.71398 914.862583 7.64013 914.228719 8.484216 C 913.007944 10.125495 910.871587 13.02118 907.866602 17.229888 C 902.537449 24.850111 895.752757 32.962717 887.489048 41.509091 C 883.110691 46.010884 877.229842 51.978105 869.834762 59.4342 C 862.498373 66.866848 856.136256 73.220942 850.807103 78.484758 C 845.196233 84.088553 838.48197 90.606774 830.699528 98.09804 C 824.818679 103.725281 819.008259 109.41114 813.209577 115.085275 C 805.497565 122.658605 801.600475 126.445269 801.518307 126.527333 C 799.229354 128.84857 797.257333 130.864999 795.637458 132.588342 L 793.653698 131.627021 L 793.653698 109.41114 C 793.653698 98.719381 793.700651 90.348859 793.782819 84.205787 C 793.853248 78.109608 794.005845 69.023958 794.205395 57.030899 C 794.451897 45.03784 794.56928 37.757596 794.56928 35.237061 C 794.56928 29.984969 794.874473 25.60041 795.55529 22.10683 C 796.224369 18.624975 797.01083 16.221674 797.926411 15.002438 C 799.78105 12.681201 803.959858 11.086816 810.486309 10.125495 C 817.001023 9.199345 820.275987 8.015279 820.275987 6.631916 C 820.275987 6.209873 820.158604 5.869894 819.92384 5.623702 L 818.53873 5.41268 L 809.605943 5.869894 L 799.346736 6.374001 C 795.074023 6.374001 790.226137 6.127809 784.767864 5.658872 L 775.259904 4.908573 C 774.42649 4.908573 773.757411 5.025807 773.323097 5.283723 L 772.84183 6.374001 C 772.84183 7.218087 774.074343 7.898045 776.480679 8.437323 C 778.887015 8.94143 780.272125 9.281409 780.589057 9.363473 C 781.610282 9.750346 782.326314 10.031708 782.795843 10.207559 C 784.932199 10.969581 786.387739 12.059859 787.221152 13.525287 C 788.042828 15.049332 788.441928 17.698824 788.441928 21.567553 L 788.441928 83.783744 C 788.441928 109.44631 788.007613 126.281141 787.138985 134.147556 C 786.270356 142.060865 784.732649 147.266063 782.561078 149.833492 C 780.389507 152.400921 777.349307 154.171158 773.475694 155.132478 C 769.566866 156.152416 767.630059 156.949608 767.630059 157.617843 C 767.630059 158.133674 767.794394 158.508823 768.111326 158.848803 L 769.719463 159.35291 L 775.259904 158.966037 L 782.561078 158.590887 L 789.157959 158.719845 L 796.658683 159.35291 C 805.943617 146.761956 819.207808 131.533234 836.474734 113.619848 C 845.430997 104.40524 855.819324 94.08863 867.627976 82.646572 C 879.401413 71.251408 893.41685 57.992219 909.603859 42.986242 L 911.470237 43.947562 L 911.904551 55.811663 L 911.904551 85.131937 C 911.904551 114.75702 911.305901 133.256576 910.120341 140.747842 C 908.899566 148.239107 906.681042 153.08088 903.488245 155.30833 C 901.704035 156.527565 899.379867 157.406822 896.504003 157.875759 C 893.581186 158.379866 892.113908 159.059824 892.03174 159.845293 C 892.03174 160.361124 892.113908 160.736273 892.313458 161.029359 C 892.513007 161.322444 892.982536 161.533466 893.768997 161.697594 C 894.766746 161.697594 896.140118 161.580359 897.924328 161.322444 C 899.696799 161.076252 901.551439 160.865231 903.52346 160.654209 C 905.50722 160.443188 907.596623 160.232166 909.768194 160.068038 C 911.97498 159.892187 914.111337 159.810123 916.212478 159.810123 L 923.59582 160.068038 L 929.946199 160.31423 C 931.166974 160.31423 932.035602 160.185272 932.552084 159.892187 C 933.068566 159.599101 933.30333 159.094994 933.30333 158.344695 C 933.30333 157.453716 931.883005 156.738587 929.042355 156.26965 C 926.319088 156.023458 924.335328 155.355223 922.997171 154.300116 C 921.02515 152.658837 919.557872 147.523979 918.618814 138.989329 C 918.219714 135.073707 917.949735 128.754783 917.703233 120.091176 C 917.468468 111.427568 917.351086 100.571681 917.351086 87.617302 Z M 974.727517 157.828865 C 978.965015 157.828865 981.993477 157.910929 983.742472 158.039887 C 985.514943 158.168844 988.437761 158.426759 992.417018 158.848803 L 1004.824319 159.810123 C 1006.127262 159.810123 1006.960676 159.681165 1007.348037 159.434974 C 1007.664969 158.966037 1007.829304 158.590887 1007.829304 158.344695 C 1007.829304 157.406822 1005.81033 156.527565 1001.748905 155.683479 C 997.710957 154.804223 994.670757 153.4912 992.745688 151.732687 C 990.761929 149.96245 989.306389 143.444229 988.402546 132.213192 C 988.402546 128.086548 988.273426 121.357305 988.038661 111.978569 C 987.803897 102.635003 987.604347 94.299651 987.45175 86.984237 C 987.287415 79.668823 987.216986 71.884472 987.216986 63.678078 L 987.216986 40.160897 C 987.216986 28.542988 987.803897 20.852424 988.954243 16.983696 C 990.09285 13.525287 992.417018 11.344731 995.90327 10.453751 L 1002.852298 9.574494 C 1005.857283 9.574494 1007.348037 8.906259 1007.348037 7.593236 C 1007.348037 6.842937 1007.078058 6.33883 1006.526362 6.045745 C 1006.00988 5.752659 1005.059084 5.623702 1003.756141 5.623702 L 1002.148005 5.623702 C 1000.12903 5.752659 998.039627 5.869894 995.785888 5.951958 C 993.532149 6.080915 991.67751 6.127809 990.139803 6.127809 L 973.706292 6.878108 C 972.685066 6.878108 970.900857 6.74915 968.377139 6.502958 C 965.806468 6.245043 963.752279 6.127809 962.132404 6.127809 L 950.558517 6.127809 C 949.689889 6.127809 949.138192 6.245043 948.832998 6.502958 C 948.504328 6.74915 948.351731 7.089129 948.351731 7.593236 C 948.351731 8.273195 948.551281 8.777302 948.950381 9.152451 C 949.302527 9.539324 950.171156 9.785516 951.474098 9.949644 C 956.486319 9.949644 960.4421 10.711666 963.28275 12.223987 C 966.1234 13.736308 968.177589 16.268567 969.398364 19.797317 C 969.950061 21.438596 970.431328 23.630875 970.865642 26.362432 C 971.299956 29.058819 971.499506 32.341376 971.499506 36.210105 C 971.499506 39.152683 971.569935 46.175012 971.769485 57.277091 C 971.969035 68.343999 972.051202 76.937266 972.051202 82.904487 C 972.051202 111.181376 971.499506 129.387848 970.431328 137.641136 C 969.363149 145.84753 967.50851 150.595515 964.902625 151.861644 C 962.249787 153.11605 959.010037 153.960136 955.183377 154.382179 C 951.391931 154.382179 949.502077 155.132478 949.502077 156.609629 C 949.502077 157.371652 949.689889 157.828865 950.018559 158.039887 C 950.370706 158.250908 951.074999 158.426759 952.178392 158.590887 L 953.093973 158.590887 L 963.634897 158.215738 Z M 1147.45546 56.925388 L 1158.782844 83.209296 C 1161.963903 90.653668 1166.307045 100.970277 1171.812271 114.053614 C 1177.270545 127.195568 1180.80375 135.718495 1182.341457 139.716181 C 1184.82996 145.976487 1187.588442 153.198114 1190.710809 161.310721 C 1197.965031 180.830215 1201.556927 192.893615 1201.556927 197.524365 C 1201.556927 200.068348 1200.817419 202.260627 1199.397094 204.124651 C 1198.176319 205.976951 1196.697303 206.938272 1194.889616 206.938272 C 1192.941072 206.938272 1190.863406 207.336868 1188.703573 208.180954 C 1186.532002 209.025041 1185.463824 209.986361 1185.463824 211.111809 C 1185.463824 211.791768 1185.68685 212.248981 1186.156379 212.577237 C 1186.637646 212.917216 1187.330201 213.093067 1188.269259 213.093067 C 1188.750526 213.093067 1189.806966 213.03445 1191.344673 212.917216 C 1192.941072 212.799982 1194.889616 212.577237 1197.272476 212.248981 L 1210.454499 211.393171 L 1219.293381 211.909002 L 1230.421216 212.413109 L 1232.745384 212.413109 C 1233.907468 212.413109 1234.764358 212.248981 1235.233887 211.909002 L 1235.867751 210.431851 C 1235.867751 208.860913 1234.764358 207.794081 1232.534096 207.161017 C 1230.315572 206.610016 1228.249645 205.871441 1226.395005 204.968737 C 1222.697465 202.987479 1219.03514 199.271155 1215.384553 193.808041 C 1211.780918 188.333204 1206.862603 178.297956 1200.664822 163.631958 L 1180.80375 116.703107 C 1157.726404 62.165757 1144.544381 29.914628 1141.257678 19.867657 L 1138.93351 11.977795 C 1137.337112 6.33883 1135.705499 3.513486 1133.956504 3.513486 C 1132.313153 3.513486 1130.88109 5.213382 1129.777697 8.484216 L 1126.068418 19.527678 C 1124.483758 23.654322 1122.68781 28.214732 1120.563192 33.34959 C 1118.391621 38.484448 1115.480542 45.248862 1111.771264 53.595937 C 1105.268288 69.106022 1095.783805 90.93503 1083.39998 119.012621 L 1067.095589 156.246203 L 1057.352865 176.879423 C 1052.798434 186.46918 1049.030465 193.292211 1046.178077 197.348514 C 1043.58393 201.299307 1041.154118 203.784672 1038.923855 204.804609 C 1036.705331 205.812823 1034.216828 206.551399 1031.411393 207.114123 C 1028.817246 207.454102 1027.53778 208.298189 1027.53778 209.763616 C 1027.53778 210.431851 1027.749068 210.947681 1028.230335 211.334554 C 1028.711602 211.733151 1029.615445 211.967619 1030.988817 212.07313 L 1032.996053 212.07313 L 1044.851658 211.733151 L 1060.416541 211.393171 L 1079.585058 211.909002 L 1090.020337 212.413109 C 1090.548558 212.190364 1090.86549 211.967619 1090.971134 211.733151 L 1090.971134 210.431851 C 1090.971134 209.200892 1088.060054 208.122337 1082.284849 207.114123 C 1076.509644 206.434165 1073.598564 204.124651 1073.598564 200.173858 C 1073.598564 197.30162 1076.673979 188.21597 1082.766116 172.881736 C 1085.994127 164.862917 1088.529583 158.555717 1090.489866 153.924966 C 1094.938653 143.326994 1098.647931 134.581323 1101.500319 127.641058 C 1106.371681 116.363128 1111.243044 105.143815 1116.114406 93.924502 L 1130.669802 58.390816 C 1135.646808 45.811586 1138.557887 39.55128 1139.356086 39.55128 C 1140.201238 41.192558 1140.940746 42.657986 1141.527657 43.842051 C 1143.323605 47.511482 1145.283889 51.849147 1147.45546 56.925388 Z M 1241.208642 158.08678 L 1249.108466 158.215738 C 1259.813725 158.215738 1268.535224 158.297802 1275.284702 158.426759 C 1282.045918 158.543994 1290.180506 158.672951 1299.700204 158.848803 C 1309.255117 159.01293 1316.791056 159.094994 1322.319759 159.094994 C 1321.263319 154.839393 1320.159926 148.872172 1318.974365 141.216779 C 1318.140952 134.311684 1317.037559 130.864999 1315.734616 130.864999 C 1315.218134 130.864999 1314.666438 131.029127 1314.114741 131.369106 C 1313.868239 131.627021 1313.680427 132.037341 1313.563045 132.588342 L 1314.114741 136.163985 C 1314.431673 138.309371 1314.58427 139.821692 1314.619485 140.665778 C 1314.666438 141.545034 1314.701653 142.224993 1314.701653 142.682206 C 1314.701653 146.726786 1311.978385 149.587301 1306.484897 151.275473 C 1301.003147 152.951922 1291.518663 153.796008 1278.019707 153.796008 C 1275.801183 153.796008 1273.51223 153.749115 1271.141109 153.667051 C 1268.805203 153.584987 1266.44582 153.420859 1264.027746 153.162944 C 1261.867913 153.162944 1259.567222 153.033986 1257.160886 152.740901 C 1254.719336 152.447815 1252.148665 152.025772 1249.34323 151.439601 L 1248.075502 124.721927 L 1247.723355 96.996038 L 1247.723355 92.670096 C 1247.723355 90.266795 1248.275052 88.789644 1249.34323 88.250367 C 1250.72834 87.652472 1253.651158 87.359387 1258.146897 87.359387 L 1268.769988 87.359387 C 1281.646818 87.359387 1290.297888 87.699366 1294.758413 88.414495 C 1299.183722 89.08273 1302.259137 90.266795 1304.043347 91.908074 C 1305.581054 93.549353 1306.801829 95.987824 1307.71741 99.223488 C 1308.586039 102.470875 1309.407714 104.112154 1310.205913 104.112154 C 1310.55806 104.112154 1310.874992 103.983196 1311.109756 103.725281 C 1311.344521 103.10394 1311.461903 102.588109 1311.461903 102.259854 L 1310.75761 94.60446 L 1310.205913 83.162402 C 1310.205913 81.263208 1310.241128 79.24678 1310.276343 77.101394 C 1310.35851 74.991179 1310.522845 72.810622 1310.75761 70.583173 L 1311.461903 63.431886 C 1311.461903 62.200927 1311.344521 61.403735 1311.109756 61.028585 C 1310.874992 60.641712 1310.405463 60.442414 1309.724646 60.348627 C 1309.020353 60.348627 1308.468656 61.66165 1307.987389 64.311143 C 1307.834792 65.190399 1307.71741 66.198613 1307.58829 67.253721 C 1307.482646 68.343999 1307.165714 69.563235 1306.719661 70.958322 C 1305.463671 75.331158 1303.057336 78.238566 1299.500654 79.668823 C 1295.908758 81.09908 1287.609835 81.814209 1274.662576 81.814209 L 1261.938343 81.814209 C 1255.458844 81.814209 1251.479587 81.556294 1249.977094 81.005293 C 1248.474602 80.466016 1247.723355 78.660609 1247.723355 75.542179 L 1247.723355 60.606542 C 1247.723355 56.784707 1247.805523 51.896041 1247.922905 46.010884 C 1248.040287 40.114004 1248.075502 36.210105 1248.075502 34.228847 C 1248.075502 32.001397 1248.192884 28.718839 1248.474602 24.381174 C 1248.744581 20.008338 1248.873701 16.807845 1248.873701 14.744523 C 1251.550016 14.334203 1254.754551 13.865266 1258.463829 13.408053 C 1260.165871 13.150137 1261.938343 12.939116 1263.792982 12.774988 C 1265.847171 12.774988 1268.500009 12.681201 1271.692806 12.470179 C 1274.89734 12.270881 1276.705027 12.177094 1277.104126 12.177094 C 1290.380056 12.177094 1300.568833 13.654245 1307.71741 16.608546 C 1314.819035 19.586295 1320.382952 24.592196 1324.420901 31.661418 C 1325.406911 33.384761 1326.357707 35.448083 1327.26155 37.886554 C 1328.130179 40.289855 1328.928378 41.509091 1329.632671 41.509091 L 1330.783017 41.122218 C 1331.017782 40.876026 1331.135164 40.500877 1331.135164 39.902982 C 1331.135164 38.343767 1330.935614 36.538361 1330.536515 34.521932 C 1330.149153 32.540674 1329.468336 29.691883 1328.447111 25.987283 C 1326.709854 19.539401 1324.338733 12.939116 1321.415916 6.127809 L 1294.805366 7.136023 L 1272.361884 7.136023 C 1265.495024 7.136023 1259.297243 7.007065 1253.76854 6.74915 C 1248.275052 6.456065 1241.995103 6.162979 1235.046075 5.752659 C 1228.050095 5.365787 1223.354806 5.154765 1220.983685 5.154765 L 1218.10782 5.154765 C 1217.321359 5.154765 1216.757925 5.236829 1216.405778 5.44785 C 1216.053631 5.658872 1215.818867 6.045745 1215.654532 6.631916 C 1215.654532 7.64013 1217.556124 8.613174 1221.335832 9.574494 C 1225.021633 10.418581 1227.345801 11.473688 1228.249645 12.728094 C 1229.200441 13.994224 1229.951687 16.901632 1230.585551 21.356532 C 1231.219415 25.858325 1231.489394 31.53246 1231.489394 38.437555 C 1231.489394 41.004984 1231.735897 52.693233 1232.205425 73.560921 C 1232.44019 83.994765 1232.557572 93.420395 1232.557572 101.790917 L 1232.557572 125.354991 C 1232.557572 135.612984 1232.088043 142.553249 1231.172462 146.222679 C 1230.221666 149.880386 1228.531362 152.236794 1226.078073 153.327072 L 1220.514156 155.179372 C 1218.143035 155.636585 1216.92226 156.480672 1216.92226 157.617843 C 1216.92226 158.133674 1217.12181 158.508823 1217.427003 158.719845 C 1217.790888 158.966037 1218.30737 159.094994 1219.011663 159.094994 L 1220.74892 159.094994 C 1223.284376 159.094994 1226.946702 158.930866 1231.735897 158.590887 C 1236.513353 158.250908 1239.659197 158.08678 1241.208642 158.08678 Z M 1419.758743 85.847066 C 1429.466253 81.181144 1436.81438 75.284264 1441.756172 68.179871 C 1446.697963 61.063755 1449.139514 52.904255 1449.139514 43.736541 C 1449.139514 32.083461 1444.913754 22.44681 1436.427019 14.87348 C 1427.928546 7.347045 1417.035475 3.56038 1403.677378 3.56038 C 1395.859722 3.56038 1387.689919 4.439636 1379.156232 6.209873 C 1370.587329 7.980109 1365.89204 8.859366 1365.023412 8.859366 C 1364.424763 8.695238 1364.037401 8.519387 1363.873066 8.355259 L 1363.168773 7.511172 L 1362.135809 5.154765 L 1359.377327 5.154765 L 1359.377327 7.593236 C 1359.377327 17.651931 1357.945264 28.003711 1355.069399 38.683746 L 1353.919054 44.240648 C 1354.235986 44.744755 1354.517703 45.03784 1354.752467 45.213691 L 1356.689274 45.717799 C 1357.006206 45.03784 1357.24097 44.498563 1357.393567 43.994456 C 1357.874834 42.681433 1358.379578 40.911196 1359.013442 38.683746 C 1360.163788 34.181953 1361.53716 30.407012 1363.168773 27.370646 C 1365.974208 22.411639 1371.420743 18.202932 1379.555331 14.709352 C 1387.689919 11.215773 1396.258822 9.49243 1405.262038 9.49243 C 1414.781737 9.49243 1422.165079 12.059859 1427.412064 17.194717 C 1432.706002 22.317852 1435.358841 29.480862 1435.358841 38.683746 C 1435.358841 52.740127 1424.019718 65.026271 1401.35321 75.542179 L 1394.169418 78.859907 C 1381.762117 84.545766 1373.040618 90.477816 1368.016659 96.749846 C 1363.004438 102.974982 1360.515935 110.759333 1360.515935 120.009112 C 1360.515935 131.744255 1364.823862 141.673992 1373.427979 149.798322 C 1381.996882 157.875759 1392.936905 161.908615 1406.212834 161.908615 C 1411.541987 161.908615 1417.305455 161.193487 1423.585404 159.728059 C 1425.52221 159.306016 1427.975499 158.801909 1430.968745 158.215738 C 1432.752955 157.910929 1433.97373 157.711631 1434.689762 157.617843 C 1436.544401 157.617843 1438.434255 158.133674 1440.335847 159.223952 L 1443.493429 160.818337 L 1444.397272 160.361124 L 1444.878539 159.38808 L 1444.514654 157.582673 C 1443.528643 152.611943 1443.012162 148.11015 1443.012162 143.995229 C 1443.012162 140.290629 1443.293879 136.668092 1443.810361 133.221406 L 1444.643774 127.793463 C 1444.643774 127.207292 1444.479439 126.785249 1444.162507 126.527333 L 1442.307868 126.316312 L 1440.570611 131.369106 C 1439.584601 134.862685 1438.234705 138.098349 1436.544401 140.958863 C 1433.774181 146.140615 1429.466253 150.173472 1423.632356 153.162944 C 1417.821936 156.105522 1411.142888 157.582673 1403.677378 157.582673 C 1394.791544 157.582673 1387.607752 154.804223 1382.079049 149.200428 C 1376.597299 143.608356 1373.827079 136.375006 1373.827079 127.500377 C 1373.827079 113.443996 1384.919699 101.497831 1407.151892 91.650159 Z M 1567.261246 158.848803 L 1591.160267 158.344695 L 1598.191462 158.344695 C 1599.212687 158.344695 1600.280865 158.379866 1601.466426 158.426759 C 1602.698939 158.46193 1603.919714 158.626058 1605.222657 158.883973 C 1608.028092 159.259122 1609.565799 159.892187 1609.953161 160.818337 L 1611.690418 158.848803 C 1609.683181 153.667051 1608.063307 148.11015 1606.842532 142.178099 C 1605.610018 136.292942 1604.74139 133.256576 1604.307076 133.092449 L 1602.217672 133.221406 C 1601.982908 133.385534 1601.818572 133.467598 1601.748143 133.561385 C 1601.665976 133.643449 1601.583808 133.725513 1601.513379 133.807577 L 1601.982908 136.797049 L 1602.452436 140.372692 C 1602.452436 144.370379 1599.693954 147.312957 1594.235681 149.118364 C 1588.753931 150.935494 1579.868097 151.81475 1567.625131 151.81475 L 1559.056228 151.439601 L 1549.102216 151.439601 L 1548.186634 121.017326 L 1548.186634 94.182417 C 1548.186634 78.906801 1548.233587 67.253721 1548.315755 59.176285 C 1548.386184 51.145742 1548.503566 42.095262 1548.667901 32.001397 C 1548.667901 27.710625 1548.867451 24.346004 1549.301765 21.813745 C 1549.73608 19.340103 1550.369944 17.323675 1551.191619 15.79963 C 1552.060248 14.287309 1553.879672 13.068074 1556.638154 12.141923 C 1559.725307 11.344731 1563.434585 10.922688 1567.859895 10.922688 C 1568.928073 10.922688 1569.597152 10.79373 1569.867131 10.547538 C 1570.148848 10.289623 1570.301445 9.750346 1570.383613 8.824195 C 1570.383613 7.933216 1570.348398 7.347045 1570.231016 7.053959 C 1570.113634 6.74915 1569.831916 6.549852 1569.47977 6.374001 L 1560.558721 7.136023 C 1558.692343 7.136023 1556.016029 7.218087 1552.459347 7.464279 C 1548.902666 7.722194 1546.29678 7.851152 1544.594738 7.851152 C 1537.493114 7.851152 1530.180201 7.347045 1522.597309 6.374001 L 1511.504689 4.908573 C 1511.023422 4.908573 1510.671276 5.025807 1510.401296 5.330616 C 1510.119579 5.623702 1510.002197 6.045745 1510.002197 6.631916 C 1510.002197 8.273195 1512.807632 9.410366 1518.371549 10.078601 C 1523.98242 10.711666 1527.656483 12.012966 1529.428955 13.865266 C 1529.980651 14.451437 1530.461918 15.76446 1530.896233 17.780888 C 1531.330547 19.750423 1531.530097 22.317852 1531.530097 25.436282 C 1531.530097 27.581668 1531.682694 34.568826 1532.03484 46.33914 C 1532.386987 58.168071 1532.551322 67.757828 1532.551322 75.16703 L 1532.551322 95.565781 C 1532.551322 104.827283 1532.469155 112.271654 1532.351772 117.828556 C 1532.23439 123.420627 1532.117008 128.672719 1531.999626 133.596556 C 1531.999626 136.539134 1531.917458 139.446542 1531.764861 142.389121 C 1531.600526 145.296529 1531.400976 148.063256 1531.213165 150.677579 L 1519.169749 151.439601 L 1506.997212 151.81475 C 1499.144341 151.81475 1492.465293 151.181686 1486.93659 149.92728 C 1481.407887 148.614257 1477.651656 146.80885 1475.64442 144.417272 C 1474.893174 143.362165 1473.86021 141.334013 1472.639435 138.391434 C 1471.735592 135.659878 1470.984346 134.311684 1470.432649 134.311684 L 1468.613225 134.686834 C 1468.143696 134.944749 1467.908931 135.284728 1467.908931 135.659878 L 1470.702628 142.940121 C 1472.40467 146.972978 1473.977592 151.521665 1475.44487 156.527565 L 1476.160902 159.728059 C 1476.583478 162.201701 1477.182127 163.43266 1477.898159 163.43266 C 1478.332473 163.43266 1478.919384 163.045787 1479.623677 162.248594 C 1480.304494 161.451402 1480.973573 161.076252 1481.607437 161.076252 C 1482.828212 160.150102 1484.682851 159.470144 1487.100925 159.01293 C 1489.542475 158.543994 1492.700057 158.344695 1496.57367 158.344695 L 1508.652301 158.344695 L 1523.947205 158.719845 L 1528.959426 158.883973 L 1534.171197 159.094994 C 1537.011847 159.094994 1542.106235 159.059824 1549.454362 158.966037 C 1556.80249 158.883973 1562.765507 158.848803 1567.261246 158.848803 Z M 1703.13117 153.796008 C 1686.380727 153.796008 1672.799603 148.192214 1662.399538 136.961177 C 1651.975997 125.777034 1646.764226 111.052419 1646.764226 92.916288 C 1646.764226 83.959595 1648.231504 74.862221 1651.107368 65.659336 C 1653.994971 56.479898 1657.985967 48.238334 1663.080355 41.040154 C 1669.242922 32.083461 1676.861028 25.014239 1685.946412 19.879381 C 1694.984844 14.744523 1704.422374 12.177094 1714.22379 12.177094 C 1729.94127 12.177094 1742.653765 17.909846 1752.337798 29.30501 C 1762.010094 40.747068 1766.869718 55.729599 1766.869718 74.27605 C 1766.869718 95.823696 1760.554554 114.452211 1747.912488 130.196764 C 1735.235208 145.929594 1720.304189 153.796008 1703.13117 153.796008 Z M 1631.844945 83.408594 C 1631.844945 105.120368 1639.263502 123.631649 1654.147568 138.942435 C 1669.043372 154.253222 1687.049805 161.908615 1708.096438 161.908615 C 1729.225238 161.908615 1746.84431 154.464243 1760.906701 139.61067 C 1775.004306 124.721927 1782.035501 106.081689 1782.035501 83.666509 C 1782.035501 61.157543 1774.722588 42.177326 1760.108502 26.737581 C 1745.494415 11.297837 1727.370599 3.56038 1705.77227 3.56038 C 1685.195166 3.56038 1667.693477 11.344731 1653.361107 26.901709 C 1639.028737 42.470411 1631.844945 61.321671 1631.844945 83.408594 Z M 1631.844945 83.408594 " transform="matrix(0.33278,0,0,-0.333201,0.469659,211.666789)"/>
</g>
</svg>
